<svg width="18" height="18" viewBox="0 0 18 18" fill="none" xmlns="http://www.w3.org/2000/svg">
<path fill-rule="evenodd" clip-rule="evenodd" d="M3.45759 15.7956C5.0199 17.0746 6.9775 17.7722 8.9966 17.7693C10.14 17.7691 11.2722 17.5434 12.3282 17.1052C13.3844 16.667 14.3438 16.025 15.1516 15.2158C16.5798 13.7885 17.4686 11.91 17.6667 9.9007C17.8648 7.89135 17.3598 5.87545 16.2378 4.1968C15.1159 2.51812 13.4464 1.28057 11.514 0.695119C9.58165 0.109669 7.50605 0.212574 5.64105 0.986289C3.77609 1.76 2.23724 3.15662 1.28682 4.93805C0.336395 6.71945 0.033235 8.7754 0.42909 10.7553C0.824945 12.7352 1.89527 14.5166 3.45759 15.7956ZM7.17605 1.78549C7.76755 1.63825 8.3787 1.56265 8.9966 1.56331C9.6176 1.5641 10.2306 1.64182 10.8229 1.7912C10.8264 1.84573 10.8374 1.89964 10.8558 1.95136C11.118 2.74622 11.335 3.55198 11.5069 4.3649L11.4795 4.31935C11.4795 4.31935 11.6002 4.69875 11.4527 4.85475C11.3994 4.9111 11.3094 4.93705 11.2163 4.9472C9.7434 4.8088 8.26065 4.8083 6.78765 4.9457C6.68505 4.9378 6.5824 4.91255 6.52395 4.8507C6.4626 4.78585 6.44755 4.68245 6.4509 4.58365C6.6291 3.69937 6.8606 2.82312 7.14545 1.95971C7.16385 1.90319 7.1741 1.84453 7.17605 1.78549ZM11.1423 6.1626C11.3163 6.2144 11.4833 6.2893 11.6388 6.38585C11.7692 6.4958 11.8474 6.6983 11.8941 6.8952C12.031 8.32615 12.0315 9.76695 11.8955 11.1979C11.8495 11.3976 11.7712 11.6047 11.6388 11.7163C11.4587 11.8282 11.2631 11.911 11.0591 11.9625C9.67365 12.0887 8.27945 12.0871 6.89425 11.9576C6.69695 11.9058 6.5078 11.8247 6.33325 11.7163C6.2361 11.6346 6.1681 11.5015 6.1206 11.3576C5.9645 9.8236 5.9653 8.27745 6.123 6.7436C6.1708 6.6001 6.2389 6.46745 6.33575 6.38585C6.4894 6.29045 6.65445 6.2162 6.82635 6.16445C8.26165 6.0265 9.7069 6.0259 11.1423 6.1626ZM16.097 7.2029C15.2491 6.9229 14.3889 6.6944 13.5206 6.51735C13.4066 6.5059 13.2736 6.5129 13.1959 6.5863C13.1451 6.6344 13.1191 6.7122 13.1069 6.7953C13.2502 8.2996 13.2495 9.8142 13.1048 11.3183C13.1176 11.3971 13.1435 11.4701 13.192 11.5159C13.3481 11.6634 13.7275 11.5429 13.7275 11.5429L13.6894 11.5659C14.5034 11.3937 15.3103 11.1761 16.1063 10.9132C16.1593 10.8948 16.2142 10.8841 16.2694 10.881C16.4751 10.0553 16.5405 9.1946 16.4563 8.33515C16.4198 7.96235 16.3556 7.5948 16.2651 7.23525C16.2078 7.2335 16.151 7.2226 16.097 7.2029ZM13.6477 5.3034C14.3561 5.445 15.0597 5.6192 15.7561 5.82605C15.3924 5.06645 14.9007 4.3679 14.2966 3.76329C13.6913 3.15777 12.9933 2.66628 12.2359 2.3027C12.453 3.03546 12.634 3.7761 12.7788 4.522C12.8288 4.6969 12.9058 4.8634 13.0073 5.0154C13.2023 5.16395 13.4312 5.2615 13.6734 5.2993L13.6477 5.3034ZM4.7895 11.5403C4.7305 11.5961 4.63955 11.6135 4.54925 11.6137C3.65642 11.4346 2.77176 11.2011 1.90023 10.9132C1.83797 10.8922 1.77294 10.8813 1.70761 10.8808C1.44143 9.8123 1.41181 8.6908 1.63057 7.59625C1.65483 7.47485 1.68205 7.3543 1.71215 7.23475C1.77297 7.2334 1.83331 7.2227 1.89107 7.2029C2.73979 6.92265 3.60096 6.69395 4.47 6.51685C4.58285 6.5061 4.713 6.514 4.7895 6.5863C4.86275 6.6556 4.88465 6.78685 4.8872 6.9066C4.7576 8.33865 4.75765 9.77955 4.8874 11.2116C4.88565 11.3335 4.86455 11.4694 4.7895 11.5403ZM5.74545 2.37323C5.5545 3.02757 5.3922 3.68805 5.2585 4.3528L5.25245 4.31545C5.21265 4.5658 5.11875 4.80455 4.97805 5.0154C4.7829 5.1639 4.5538 5.26145 4.3115 5.2993L4.3387 5.3037C3.62651 5.44605 2.91925 5.6214 2.21921 5.82975C2.69108 4.843 3.37634 3.96435 4.23415 3.2618C4.66595 2.90813 5.1329 2.60612 5.6255 2.35917C5.6646 2.36778 5.7048 2.37254 5.74545 2.37323ZM2.29504 12.4579C2.30678 12.4115 2.31293 12.3638 2.31326 12.3157C3.06443 12.536 3.82519 12.7186 4.5927 12.8631C4.73045 12.9137 4.8604 12.9848 4.97805 13.0743C5.11875 13.2852 5.21265 13.5239 5.25245 13.7743L5.2561 13.7517C5.39025 14.4205 5.55335 15.0849 5.74545 15.7432C5.6968 15.7438 5.6485 15.7502 5.60165 15.7624C4.22805 15.0676 3.09688 13.9645 2.36811 12.5984C2.34325 12.5518 2.31888 12.5049 2.29504 12.4579ZM7.14545 16.1647C6.8611 15.3027 6.62985 14.4279 6.45175 13.545C6.4458 13.4407 6.45865 13.3279 6.52395 13.2589C6.57555 13.2043 6.6616 13.1782 6.7516 13.1674C7.49755 13.2377 8.2473 13.2726 8.99825 13.2717C9.7524 13.2728 10.5054 13.238 11.2545 13.1675C11.3335 13.1803 11.4067 13.2063 11.4527 13.2549C11.6002 13.4109 11.4795 13.7904 11.4795 13.7904L11.5063 13.7459C11.3345 14.5578 11.1177 15.3625 10.8558 16.1564C10.8333 16.2163 10.8214 16.2795 10.8204 16.3433C9.6209 16.6453 8.36915 16.6451 7.17635 16.3482C7.1752 16.286 7.16485 16.2241 7.14545 16.1647ZM12.2211 15.8383C12.4453 15.0878 12.6315 14.3289 12.7797 13.5645C12.8298 13.3908 12.9064 13.2254 13.0073 13.0743C13.1176 12.9903 13.2388 12.9225 13.3671 12.8726C14.1502 12.7272 14.9264 12.5422 15.6927 12.3182C15.693 12.3517 15.6962 12.385 15.7022 12.4178C15.5612 12.7001 15.4021 12.9745 15.225 13.2392C14.4715 14.3654 13.4314 15.2605 12.2211 15.8383Z" fill="#333333"/>
</svg>
